<?xml version="1.0" encoding="UTF-8" standalone="no"?>
<!DOCTYPE svg PUBLIC "-//W3C//DTD SVG 1.1//EN"
 "http://www.w3.org/Graphics/SVG/1.1/DTD/svg11.dtd">
<!-- Generated by graphviz version 2.26.3 (20100126.1600)
 -->
<!-- Title: XlifeHistory Pages: 1 -->
<svg width="680pt" height="1118pt"
 viewBox="0.00 0.00 680.00 1118.00" xmlns="http://www.w3.org/2000/svg" xmlns:xlink="http://www.w3.org/1999/xlink">
<g id="graph1" class="graph" transform="scale(1 1) rotate(0) translate(4 1114)">
<title>XlifeHistory</title>
<polygon fill="#00ff00" stroke="#00ff00" points="-4,5 -4,-1114 677,-1114 677,5 -4,5"/>
<!-- N -->
<g id="node1" class="node"><title>N</title>
<text text-anchor="middle" x="112" y="-1080.8" font-family="Times Roman,serif" font-size="28.00" fill="#0000ff">XLIFE</text>
<text text-anchor="middle" x="112" y="-1046.8" font-family="Times Roman,serif" font-size="28.00" fill="#0000ff">DEVELOPMENT</text>
<text text-anchor="middle" x="112" y="-1012.8" font-family="Times Roman,serif" font-size="28.00" fill="#0000ff">HISTORY</text>
</g>
<!-- T -->
<g id="node2" class="node"><title>T</title>
<text text-anchor="middle" x="112" y="-930.9" font-family="Times Roman,serif" font-size="9.00" fill="#ff0000">This is a preliminary edition only</text>
</g>
<!-- N&#45;&gt;T -->
<!-- 1 -->
<g id="node3" class="node"><title>1</title>
<polygon fill="none" stroke="black" points="442,-1086 242,-1086 242,-1024 442,-1024 442,-1086"/>
<text text-anchor="middle" x="342" y="-1069.4" font-family="Times Roman,serif" font-size="14.00">1.0–1.6 (Jon C R Bennett,</text>
<text text-anchor="middle" x="342" y="-1051.4" font-family="Times Roman,serif" font-size="14.00">Charles Humphrey Silvers,</text>
<text text-anchor="middle" x="342" y="-1033.4" font-family="Times Roman,serif" font-size="14.00">Daniel E. Lovinger, 1989)</text>
</g>
<!-- 2 -->
<g id="node4" class="node"><title>2</title>
<polygon fill="none" stroke="black" points="439,-964 245,-964 245,-902 439,-902 439,-964"/>
<text text-anchor="middle" x="342" y="-947.4" font-family="Times Roman,serif" font-size="14.00">2.0 (Jon C R Bennett,</text>
<text text-anchor="middle" x="342" y="-929.4" font-family="Times Roman,serif" font-size="14.00">Eric S. Raymond,</text>
<text text-anchor="middle" x="342" y="-911.4" font-family="Times Roman,serif" font-size="14.00">Daniel E. Lovinger, 1990)</text>
</g>
<!-- 1&#45;&gt;2 -->
<g id="edge2" class="edge"><title>1&#45;&gt;2</title>
<path fill="none" stroke="black" d="M342,-1023.9C342,-1008.84 342,-990.556 342,-974.344"/>
<polygon fill="black" stroke="black" points="345.5,-974.045 342,-964.045 338.5,-974.045 345.5,-974.045"/>
</g>
<!-- 3 -->
<g id="node5" class="node"><title>3</title>
<polygon fill="none" stroke="black" points="439,-866 245,-866 245,-786 439,-786 439,-866"/>
<text text-anchor="middle" x="342" y="-849.4" font-family="Times Roman,serif" font-size="14.00">3.0 (Jon C R Bennett,</text>
<text text-anchor="middle" x="342" y="-831.4" font-family="Times Roman,serif" font-size="14.00">Eric S. Raymond,</text>
<text text-anchor="middle" x="342" y="-813.4" font-family="Times Roman,serif" font-size="14.00">Paul B. Callahan,</text>
<text text-anchor="middle" x="342" y="-795.4" font-family="Times Roman,serif" font-size="14.00">Daniel E. Lovinger, 1991)</text>
</g>
<!-- 2&#45;&gt;3 -->
<g id="edge4" class="edge"><title>2&#45;&gt;3</title>
<path fill="none" stroke="black" d="M342,-901.764C342,-893.783 342,-884.998 342,-876.325"/>
<polygon fill="black" stroke="black" points="345.5,-876.25 342,-866.25 338.5,-876.25 345.5,-876.25"/>
</g>
<!-- 4 -->
<g id="node6" class="node"><title>4</title>
<polygon fill="none" stroke="black" points="271,-589 71,-589 71,-545 271,-545 271,-589"/>
<text text-anchor="middle" x="171" y="-572.4" font-family="Times Roman,serif" font-size="14.00">3.5 (Achim Flammenkamp,</text>
<text text-anchor="middle" x="171" y="-554.4" font-family="Times Roman,serif" font-size="14.00">1995–97)</text>
</g>
<!-- 2&#45;&gt;4 -->
<g id="edge6" class="edge"><title>2&#45;&gt;4</title>
<path fill="none" stroke="black" d="M278.628,-901.912C263.169,-892.071 247.726,-880.034 236,-866 170.747,-787.904 166.756,-659.247 168.88,-599.439"/>
<polygon fill="black" stroke="black" points="172.392,-599.245 169.334,-589.101 165.399,-598.937 172.392,-599.245"/>
</g>
<!-- W1 -->
<g id="node18" class="node"><title>W1</title>
<polygon fill="none" stroke="black" points="617,-750 465,-750 465,-652 617,-652 617,-750"/>
<text text-anchor="middle" x="541" y="-733.4" font-family="Times Roman,serif" font-size="14.00">W&#45;Life 1.0 and 2.0,</text>
<text text-anchor="middle" x="541" y="-715.4" font-family="Times Roman,serif" font-size="14.00">A conversion for</text>
<text text-anchor="middle" x="541" y="-697.4" font-family="Times Roman,serif" font-size="14.00"> Microsoft Windows</text>
<text text-anchor="middle" x="541" y="-679.4" font-family="Times Roman,serif" font-size="14.00">(Glen Summers,</text>
<text text-anchor="middle" x="541" y="-661.4" font-family="Times Roman,serif" font-size="14.00">1994,95)</text>
</g>
<!-- 2&#45;&gt;W1 -->
<g id="edge46" class="edge"><title>2&#45;&gt;W1</title>
<path fill="none" stroke="black" d="M402.531,-901.901C418.526,-891.861 434.949,-879.726 448,-866 477.306,-835.178 500.738,-793.382 516.752,-759.57"/>
<polygon fill="black" stroke="black" points="520.037,-760.804 521.07,-750.26 513.687,-757.859 520.037,-760.804"/>
</g>
<!-- 3&#45;&gt;4 -->
<g id="edge8" class="edge"><title>3&#45;&gt;4</title>
<path fill="none" stroke="black" stroke-dasharray="5,2" d="M265.882,-785.906C251.767,-775.724 238.26,-763.713 228,-750 210.014,-725.962 189.064,-644.891 178.264,-599.131"/>
<polygon fill="black" stroke="black" points="181.61,-598.068 175.932,-589.124 174.793,-599.657 181.61,-598.068"/>
</g>
<!-- 5 -->
<g id="node7" class="node"><title>5</title>
<polygon fill="none" stroke="black" points="447,-723 237,-723 237,-679 447,-679 447,-723"/>
<text text-anchor="middle" x="342" y="-706.4" font-family="Times Roman,serif" font-size="14.00">4.0–4.3*</text>
<text text-anchor="middle" x="342" y="-688.4" font-family="Times Roman,serif" font-size="14.00">(Eric S. Raymond, 1992–94)</text>
</g>
<!-- 3&#45;&gt;5 -->
<g id="edge10" class="edge"><title>3&#45;&gt;5</title>
<path fill="none" stroke="black" d="M342,-785.761C342,-768.945 342,-749.655 342,-733.73"/>
<polygon fill="black" stroke="black" points="345.5,-733.314 342,-723.314 338.5,-733.314 345.5,-733.314"/>
</g>
<!-- 3&#45;&gt;W1 -->
<g id="edge48" class="edge"><title>3&#45;&gt;W1</title>
<path fill="none" stroke="black" d="M405.786,-785.933C421.76,-775.9 439.149,-764.977 455.974,-754.408"/>
<polygon fill="black" stroke="black" points="458.105,-757.203 464.711,-748.92 454.381,-751.276 458.105,-757.203"/>
</g>
<!-- 7 -->
<g id="node9" class="node"><title>7</title>
<polygon fill="none" stroke="black" points="360,-482 264,-482 264,-446 360,-446 360,-482"/>
<text text-anchor="middle" x="312" y="-460.4" font-family="Times Roman,serif" font-size="14.00">3.6¹ (1997)</text>
</g>
<!-- 4&#45;&gt;7 -->
<g id="edge12" class="edge"><title>4&#45;&gt;7</title>
<path fill="none" stroke="black" d="M201.248,-544.904C224.022,-528.268 255.223,-505.476 278.705,-488.322"/>
<polygon fill="black" stroke="black" points="280.967,-491.004 286.977,-482.279 276.838,-485.352 280.967,-491.004"/>
</g>
<!-- 9 -->
<g id="node11" class="node"><title>9</title>
<polygon fill="none" stroke="black" points="398,-406 294,-406 294,-370 398,-370 398,-406"/>
<text text-anchor="middle" x="346" y="-384.4" font-family="Times Roman,serif" font-size="14.00">5.2*¹ (1997)</text>
</g>
<!-- 4&#45;&gt;9 -->
<g id="edge32" class="edge"><title>4&#45;&gt;9</title>
<path fill="none" stroke="black" stroke-dasharray="5,2" d="M182.716,-544.952C197.216,-519.09 223.844,-475.952 255,-446 268.903,-432.635 286.338,-420.64 302.217,-411.075"/>
<polygon fill="black" stroke="black" points="303.989,-414.093 310.847,-406.017 300.449,-408.054 303.989,-414.093"/>
</g>
<!-- W2 -->
<g id="node19" class="node"><title>W2</title>
<polygon fill="none" stroke="black" points="273,-410 87,-410 87,-366 273,-366 273,-410"/>
<text text-anchor="middle" x="180" y="-393.4" font-family="Times Roman,serif" font-size="14.00">Microsoft Windows port</text>
<text text-anchor="middle" x="180" y="-375.4" font-family="Times Roman,serif" font-size="14.00">(David Kinder, 2000–07)</text>
</g>
<!-- 4&#45;&gt;W2 -->
<g id="edge50" class="edge"><title>4&#45;&gt;W2</title>
<path fill="none" stroke="black" d="M172.122,-544.691C173.693,-513.436 176.56,-456.417 178.368,-420.459"/>
<polygon fill="black" stroke="black" points="181.886,-420.191 178.892,-410.027 174.895,-419.839 181.886,-420.191"/>
</g>
<!-- 6 -->
<g id="node8" class="node"><title>6</title>
<polygon fill="none" stroke="black" points="663,-585 573,-585 573,-549 663,-549 663,-585"/>
<text text-anchor="middle" x="618" y="-563.4" font-family="Times Roman,serif" font-size="14.00">5.0 (1995)</text>
</g>
<!-- 5&#45;&gt;6 -->
<g id="edge14" class="edge"><title>5&#45;&gt;6</title>
<path fill="none" stroke="black" d="M390.729,-678.984C410.79,-670.202 434.358,-660.241 456,-652 503.284,-633.994 520.328,-641.549 564,-616 574.818,-609.672 585.344,-600.91 594.187,-592.543"/>
<polygon fill="black" stroke="black" points="596.813,-594.87 601.49,-585.363 591.905,-589.878 596.813,-594.87"/>
</g>
<!-- 8 -->
<g id="node10" class="node"><title>8</title>
<polygon fill="none" stroke="black" points="576,-482 472,-482 472,-446 576,-446 576,-482"/>
<text text-anchor="middle" x="524" y="-460.4" font-family="Times Roman,serif" font-size="14.00">5.1*¹ (1996)</text>
</g>
<!-- 6&#45;&gt;8 -->
<g id="edge16" class="edge"><title>6&#45;&gt;8</title>
<path fill="none" stroke="black" d="M601.195,-548.586C586.224,-532.181 564.164,-508.01 547.456,-489.702"/>
<polygon fill="black" stroke="black" points="549.986,-487.282 540.66,-482.255 544.816,-492.001 549.986,-487.282"/>
</g>
<!-- 13 -->
<g id="node15" class="node"><title>13</title>
<polygon fill="none" stroke="black" points="672,-330 496,-330 496,-268 672,-268 672,-330"/>
<text text-anchor="middle" x="584" y="-313.4" font-family="Times Roman,serif" font-size="14.00">5.0.1–5.0.8</text>
<text text-anchor="middle" x="584" y="-295.4" font-family="Times Roman,serif" font-size="14.00">(Debian Linux patches,</text>
<text text-anchor="middle" x="584" y="-277.4" font-family="Times Roman,serif" font-size="14.00">1996–2008)</text>
</g>
<!-- 6&#45;&gt;13 -->
<g id="edge26" class="edge"><title>6&#45;&gt;13</title>
<path fill="none" stroke="black" d="M615.716,-549C610.337,-506.596 596.756,-399.544 589.227,-340.202"/>
<polygon fill="black" stroke="black" points="592.67,-339.533 587.94,-330.053 585.726,-340.414 592.67,-339.533"/>
</g>
<!-- 7&#45;&gt;9 -->
<g id="edge34" class="edge"><title>7&#45;&gt;9</title>
<path fill="none" stroke="black" stroke-dasharray="5,2" d="M320.058,-445.989C324.135,-436.875 329.172,-425.616 333.72,-415.45"/>
<polygon fill="black" stroke="black" points="336.994,-416.703 337.882,-406.145 330.604,-413.844 336.994,-416.703"/>
</g>
<!-- 8&#45;&gt;9 -->
<g id="edge18" class="edge"><title>8&#45;&gt;9</title>
<path fill="none" stroke="black" d="M481.816,-445.989C456.526,-435.191 424.186,-421.383 397.408,-409.949"/>
<polygon fill="black" stroke="black" points="398.76,-406.721 388.189,-406.013 396.011,-413.159 398.76,-406.721"/>
</g>
<!-- 10 -->
<g id="node12" class="node"><title>10</title>
<polygon fill="none" stroke="black" points="422,-317 326,-317 326,-281 422,-281 422,-317"/>
<text text-anchor="middle" x="374" y="-295.4" font-family="Times Roman,serif" font-size="14.00">5.3¹ (1998)</text>
</g>
<!-- 9&#45;&gt;10 -->
<g id="edge20" class="edge"><title>9&#45;&gt;10</title>
<path fill="none" stroke="black" d="M351.666,-369.99C355.55,-357.646 360.778,-341.027 365.2,-326.972"/>
<polygon fill="black" stroke="black" points="368.584,-327.879 368.246,-317.289 361.906,-325.778 368.584,-327.879"/>
</g>
<!-- 11 -->
<g id="node13" class="node"><title>11</title>
<polygon fill="none" stroke="black" points="367,-219 271,-219 271,-183 367,-183 367,-219"/>
<text text-anchor="middle" x="319" y="-197.4" font-family="Times Roman,serif" font-size="14.00">5.4² (1998)</text>
</g>
<!-- 10&#45;&gt;11 -->
<g id="edge22" class="edge"><title>10&#45;&gt;11</title>
<path fill="none" stroke="black" d="M363.655,-280.567C355.306,-265.69 343.444,-244.555 334.044,-227.805"/>
<polygon fill="black" stroke="black" points="337.059,-226.027 329.113,-219.019 330.955,-229.453 337.059,-226.027"/>
</g>
<!-- 14 -->
<g id="node16" class="node"><title>14</title>
<polygon fill="none" stroke="black" points="527,-232 385,-232 385,-170 527,-170 527,-232"/>
<text text-anchor="middle" x="456" y="-215.4" font-family="Times Roman,serif" font-size="14.00">6.0–6.6</text>
<text text-anchor="middle" x="456" y="-197.4" font-family="Times Roman,serif" font-size="14.00">(Vladimir Lidovski,</text>
<text text-anchor="middle" x="456" y="-179.4" font-family="Times Roman,serif" font-size="14.00">2011–13)</text>
</g>
<!-- 10&#45;&gt;14 -->
<g id="edge36" class="edge"><title>10&#45;&gt;14</title>
<path fill="none" stroke="black" stroke-dasharray="5,2" d="M389.424,-280.567C398.964,-269.165 411.581,-254.087 423.263,-240.124"/>
<polygon fill="black" stroke="black" points="426.271,-241.984 430.004,-232.069 420.902,-237.492 426.271,-241.984"/>
</g>
<!-- 12 -->
<g id="node14" class="node"><title>12</title>
<polygon fill="none" stroke="black" points="374,-134 264,-134 264,-98 374,-98 374,-134"/>
<text text-anchor="middle" x="319" y="-112.4" font-family="Times Roman,serif" font-size="14.00">5.5*² (1999?)</text>
</g>
<!-- 11&#45;&gt;12 -->
<g id="edge24" class="edge"><title>11&#45;&gt;12</title>
<path fill="none" stroke="black" d="M319,-182.974C319,-171.704 319,-156.952 319,-144.163"/>
<polygon fill="black" stroke="black" points="322.5,-144 319,-134 315.5,-144 322.5,-144"/>
</g>
<!-- 13&#45;&gt;14 -->
<g id="edge28" class="edge"><title>13&#45;&gt;14</title>
<path fill="none" stroke="black" d="M543.5,-267.992C531.243,-258.608 517.651,-248.202 504.906,-238.444"/>
<polygon fill="black" stroke="black" points="506.744,-235.443 496.676,-232.142 502.488,-241.001 506.744,-235.443"/>
</g>
<!-- 15 -->
<g id="node17" class="node"><title>15</title>
<polygon fill="none" stroke="black" points="491,-134 401,-134 401,-98 491,-98 491,-134"/>
<text text-anchor="middle" x="446" y="-112.4" font-family="Times Roman,serif" font-size="14.00">6.7 (2013)</text>
</g>
<!-- 14&#45;&gt;15 -->
<g id="edge30" class="edge"><title>14&#45;&gt;15</title>
<path fill="none" stroke="black" d="M452.333,-169.832C451.356,-161.53 450.307,-152.605 449.348,-144.457"/>
<polygon fill="black" stroke="black" points="452.799,-143.832 448.154,-134.31 445.847,-144.65 452.799,-143.832"/>
</g>
<!-- W3 -->
<g id="node20" class="node"><title>W3</title>
<polygon fill="none" stroke="black" points="417,-62 237,-62 237,-3.19744e-14 417,-7.10543e-15 417,-62"/>
<text text-anchor="middle" x="327" y="-45.4" font-family="Times Roman,serif" font-size="14.00">Microsoft Windows port</text>
<text text-anchor="middle" x="327" y="-27.4" font-family="Times Roman,serif" font-size="14.00">(Vladimir Lidovski,</text>
<text text-anchor="middle" x="327" y="-9.4" font-family="Times Roman,serif" font-size="14.00">Yaroslav Zotov, 2013)</text>
</g>
<!-- 15&#45;&gt;W3 -->
<g id="edge52" class="edge"><title>15&#45;&gt;W3</title>
<path fill="none" stroke="black" d="M420.763,-97.9737C408.558,-89.2559 393.436,-78.4541 378.924,-68.0887"/>
<polygon fill="black" stroke="black" points="380.649,-65.0196 370.477,-62.0553 376.58,-70.7158 380.649,-65.0196"/>
</g>
<!-- W2&#45;&gt;W3 -->
<g id="edge54" class="edge"><title>W2&#45;&gt;W3</title>
<path fill="none" stroke="black" d="M181.523,-365.65C185.859,-314.729 201.642,-187.58 255,-98 261.144,-87.6854 269.344,-77.9825 278.008,-69.3333"/>
<polygon fill="black" stroke="black" points="280.536,-71.7588 285.36,-62.3256 275.706,-66.692 280.536,-71.7588"/>
</g>
<!-- A -->
<g id="node21" class="node"><title>A</title>
<text text-anchor="middle" x="422" y="-599.4" font-family="Times Roman,serif" font-size="14.00">¹ marks unstable versions</text>
<text text-anchor="middle" x="422" y="-581.4" font-family="Times Roman,serif" font-size="14.00">² marks unreleased versions</text>
<text text-anchor="middle" x="422" y="-563.4" font-family="Times Roman,serif" font-size="14.00">* marks missed versions</text>
<text text-anchor="middle" x="422" y="-545.4" font-family="Times Roman,serif" font-size="14.00">a solid arrow shows the inheritance</text>
<text text-anchor="middle" x="422" y="-527.4" font-family="Times Roman,serif" font-size="14.00">a dashed arrow shows the influence</text>
</g>
<!-- A&#45;&gt;7 -->
<!-- A&#45;&gt;9 -->
<!-- A&#45;&gt;10 -->
</g>
</svg>
